<?xml version="1.0" encoding="utf-8"?>
<!-- Generator: Adobe Illustrator 18.0.0, SVG Export Plug-In . SVG Version: 6.00 Build 0)  -->
<!DOCTYPE svg PUBLIC "-//W3C//DTD SVG 1.1//EN" "http://www.w3.org/Graphics/SVG/1.1/DTD/svg11.dtd" [
	<!ENTITY ns_flows "http://ns.adobe.com/Flows/1.0/">
	<!ENTITY ns_extend "http://ns.adobe.com/Extensibility/1.0/">
	<!ENTITY ns_ai "http://ns.adobe.com/AdobeIllustrator/10.0/">
	<!ENTITY ns_graphs "http://ns.adobe.com/Graphs/1.0/">
]>
<svg version="1.1" id="Layer_1" xmlns:x="&ns_extend;" xmlns:i="&ns_ai;" xmlns:graph="&ns_graphs;"
	 xmlns="http://www.w3.org/2000/svg" xmlns:xlink="http://www.w3.org/1999/xlink" xmlns:a="http://ns.adobe.com/AdobeSVGViewerExtensions/3.0/"
	 x="0px" y="0px" viewBox="0 0 38 24" enable-background="new 0 0 38 24" xml:space="preserve">
<title  id="pi-american_express">American Express</title>
<path opacity="7.000000e-002" enable-background="new    " d="M35,0H3C1.3,0,0,1.3,0,3v18c0,1.7,1.4,3,3,3h32c1.7,0,3-1.3,3-3V3
	C38,1.3,36.6,0,35,0z"/>
<path fill="#FEFEFE" d="M35,1c1.1,0,2,0.9,2,2v18c0,1.1-0.9,2-2,2H3c-1.1,0-2-0.9-2-2V3c0-1.1,0.9-2,2-2H35"/>
<g>
	<g>
		<path fill="#FEFEFE" d="M20,3.9c4.9,0,9.8,0,14.7,0C35,3.9,35,4,35,4.3c0,4.6,0,9.3,0,13.9c-10.6,0-21.1,0-31.7,0
			c-0.4,0-0.4-0.1-0.4-0.4c0-4.5,0-9,0-13.5C2.9,4,3,3.9,3.3,3.9c5.5,0,10.9,0,16.4,0c0.5,0.4,0.9,0.8,1.1,1.4
			c0,0.1-0.1,0.1-0.1,0.1c-0.2,0-0.3-0.2-0.6-0.2c0.4,0.6,1,0.9,1.4,1.4C21.6,6.8,21.8,7,22,7.1c0.2,0.2,0.3,0.3,0.6,0.3
			c0.7,0.7,1.3,1.6,1.9,2.3c0.1,0.1,0.2,0.3,0.4,0.4c0.2-0.6,0.3-1.2,0.5-1.8c0.3-1,0.5-2,0.8-2.9c0.1-0.4,0-0.5-0.4-0.6
			c-1.8-0.2-3.6-0.5-5.4-0.7C20.3,4.2,20,4.2,20,3.9z"/>
		<path fill="#D83568" d="M20,3.9c0.9,0.2,1.8,0.3,2.7,0.4c1.1,0.2,2.3,0.3,3.4,0.4c0.4,0,0.4,0.2,0.3,0.5c-0.5,1.7-1,3.5-1.5,5.3
			c-0.9-1.1-1.7-2.1-2.5-3.1c-0.7-0.6-1.2-1.3-1.7-2.1c-0.4-0.5-0.7-0.9-1.1-1.4C19.8,3.9,19.9,3.9,20,3.9z"/>
		<path fill="#D83568" d="M25.3,11.6c-0.2-0.5-0.2-1,0-1.4c0.5-1.8,1-3.5,1.5-5.2C26.9,5,27,5.1,27,5.2c1.5,2,3.1,4.1,4.6,6.1
			c0.1,0.1,0.2,0.2,0.2,0.3c-0.2,0.1-0.4,0.2-0.6,0.1c-1.7-0.2-3.3-0.2-5-0.4C25.9,11.3,25.6,11.4,25.3,11.6z"/>
		<path fill="#C3161C" d="M25.3,11.6c0-0.4,0.1-0.5,0.5-0.4c1.7,0.1,3.5,0.3,5.2,0.4c0.3,0,0.5,0,0.8,0c-0.1,0.2-0.2,0.3-0.4,0.4
			c-1.7,0.8-3.3,1.6-5,2.4c-0.3,0.2-0.4,0.1-0.5-0.2C25.7,13.3,25.5,12.5,25.3,11.6z"/>
		<path fill="#9D0A0E" d="M25,11.4c0.3,1.3,0.6,2.6,0.9,3.9c0,0.2,0.1,0.4-0.1,0.5c-0.9,0.7-1.7,1.4-2.6,2c0,0-0.1,0-0.3,0.1
			C23.6,15.7,24.2,13.5,25,11.4C24.9,11.3,24.9,11.3,25,11.4z"/>
		<path fill="#010101" d="M8.1,14.8c-0.3,0-0.6,0-0.9,0c0.1-1.7,0.1-3.5,0-5.2c0.3,0,0.6,0,0.9,0C8,10.4,8.1,11.1,8,11.9
			c0.3,0,0.5-0.2,0.6-0.4c0.5-0.6,1.1-1.1,1.4-1.8c0.2-0.4,0.6-0.1,0.9-0.1c-0.7,0.6-1.2,1.3-1.9,1.9c-0.3,0.3-0.3,0.5-0.1,0.8
			c0.6,0.8,1.1,1.6,1.7,2.4c-0.6,0.1-1,0.1-1.3-0.5C9,13.6,8.6,13,8.1,12.3C8.1,13.2,8,14,8.1,14.8z"/>
		<path fill="#010101" d="M3,9.2c0.8-0.1,0.8-0.1,0.8,0.6c0,0.6,0,1.2,0,1.8c0.2-0.2,0.3-0.3,0.5-0.4C4.9,10.8,5.7,11,6,11.7
			c0.4,0.8,0.4,1.7,0,2.5C5.7,14.8,5.1,15,4.5,15c-1.3-0.1-1.3-0.1-1.3-1.4c0-1.2,0-2.4,0-3.6C3.2,9.8,3.2,9.5,3,9.2z"/>
		<path fill="#020202" d="M17.6,9.2c0.1,0,0.2,0,0.3-0.1c0.4-0.1,0.4,0,0.4,0.4c0,0.6,0,1.3,0,2c0.4-0.3,0.8-0.5,1.2-0.5
			c0.5,0.1,0.8,0.3,0.8,0.8c0.1,0.9-0.1,1.9,0.1,2.8c0,0.3-0.2,0.2-0.3,0.2c-0.2,0-0.4,0-0.4-0.3c0-0.5,0-1.1,0-1.6
			c0-0.3,0-0.5-0.1-0.8c0-0.4-0.2-0.6-0.7-0.6c-0.5,0-0.7,0.3-0.7,0.7c-0.1,0.8-0.1,1.6,0,2.4c0,0.1,0.1,0.2,0,0.3
			c-0.2,0-0.4,0-0.6,0c-0.2,0,0-0.2,0-0.3c0-1.6,0-3.3,0-4.9C17.7,9.5,17.6,9.4,17.6,9.2z"/>
		<path fill="#020202" d="M13.1,14.4c-0.3,0.5-0.8,0.7-1.3,0.5c-0.7-0.2-0.9-1-0.4-1.5c0.4-0.4,0.9-0.5,1.4-0.8
			c0.4-0.2,0.5-0.9,0.2-1.2c-0.3-0.3-0.8-0.2-1,0.2c-0.1,0.2-0.2,0.4-0.4,0.4c-0.1,0-0.2-0.1-0.3-0.2c0-0.3,0.1-0.4,0.3-0.6
			c0.6-0.3,1.2-0.3,1.8-0.2c0.3,0.1,0.4,0.4,0.4,0.7c0,0.7,0,1.5,0,2.2c0,0.1,0,0.3,0,0.4c0,0.2,0.4,0.4-0.1,0.5
			c-0.3,0.1-0.5,0.1-0.5-0.3C13.2,14.5,13.2,14.5,13.1,14.4z"/>
		<path fill="#B11217" d="M33.4,8.4c-0.4,1.1-0.9,2.1-1.3,3.2c-0.7-0.9-1.3-1.8-1.9-2.7C31.3,8.8,32.3,8.6,33.4,8.4z"/>
		<path fill="#020202" d="M14.5,14.1c0.2,0.4,0.5,0.6,0.9,0.6c0.3,0,0.6-0.1,0.7-0.4c0.1-0.3,0.1-0.6-0.2-0.8
			c-0.2-0.2-0.4-0.3-0.6-0.4c-0.2-0.1-0.4-0.3-0.6-0.4c-0.5-0.6-0.2-1.4,0.6-1.5c0.3,0,0.5,0,0.8,0c0.4,0,0.6,0.2,0.4,0.6
			c-0.3-0.2-0.5-0.5-0.9-0.4c-0.2,0-0.4,0.1-0.5,0.3c-0.1,0.2,0,0.4,0.1,0.6c0.2,0.3,0.5,0.4,0.8,0.6c0.7,0.4,0.9,0.7,0.8,1.2
			c-0.1,0.5-0.5,0.9-1.2,1c-0.2,0-0.5,0-0.7,0C14.5,14.9,14.3,14.7,14.5,14.1z"/>
		<path fill="#B4151A" d="M33.7,8.4c0.4,0.4,0.8,0.8,1.2,1.3c-0.6,0-1,0-1.5,0c-0.2,0-0.2-0.1-0.1-0.3C33.4,9.1,33.5,8.8,33.7,8.4z"
			/>
		<path fill="#E24235" d="M28.9,13.4c0.1-0.1,0.2-0.1,0.3-0.2c0.9-0.4,1.7-0.9,2.6-1.3c0,0.3,0,0.6-0.4,0.7
			c-0.8,0.3-1.6,0.6-2.4,0.9C29,13.6,28.9,13.5,28.9,13.4z"/>
		<path fill="#B7181D" d="M21.4,6.7c-0.6-0.5-1.1-1-1.7-1.6c0.5-0.1,0.8-0.1,1,0.3c0.4,0.3,0.7,0.7,0.9,1.2
			C21.5,6.7,21.4,6.8,21.4,6.7z"/>
		<path fill="#F6E0E3" d="M21.5,6.6c-0.3-0.4-0.6-0.8-0.8-1.2c0,0,0.1-0.1,0.1-0.1c0.6,0.7,1.2,1.4,1.7,2.1c-0.1,0.1-0.2,0.3-0.3,0
			c-0.1-0.1-0.1-0.2-0.2-0.2C21.8,7,21.5,6.8,21.5,6.6z"/>
		<path fill="#E75C51" d="M28.9,13.4c0,0,0.1,0.1,0.1,0.1c-0.3,0.1-0.7,0.3-1,0.4C28,14,28,14,28,13.9
			C28.3,13.7,28.6,13.6,28.9,13.4z"/>
		<path fill="#C53237" d="M21.5,6.6c0.2,0.2,0.4,0.3,0.4,0.6c-0.2-0.2-0.4-0.3-0.5-0.5C21.4,6.7,21.4,6.6,21.5,6.6z"/>
		<path fill="#ED9E97" d="M28,13.9C28,13.9,28.1,13.9,28,13.9c-0.1,0.3-0.4,0.3-0.8,0.4C27.5,14,27.8,13.9,28,13.9z"/>
		<path fill="#FDFDFD" d="M3.8,13.2c0-0.3,0-0.6,0.1-0.9c0.1-0.4,0.3-0.7,0.8-0.7c0.4,0,0.7,0.2,0.8,0.6c0.2,0.6,0.2,1.2,0,1.8
			c-0.2,0.5-0.6,0.7-1,0.7c-0.5-0.1-0.6-0.5-0.7-0.9C3.8,13.6,3.8,13.4,3.8,13.2z"/>
		<path fill="#FCFCFC" d="M13.2,12.8c0,0.4,0,0.7,0,1c0,0.4-0.2,0.6-0.6,0.7c-0.3,0-0.5,0-0.6-0.3c-0.1-0.4,0-0.7,0.4-0.9
			C12.5,13.1,12.8,13,13.2,12.8z"/>
	</g>
</g>
</svg>
